<svg class="inline" width="120" height="39" fill="#19AE82" xmlns="http://www.w3.org/2000/svg">
                  <path d="M18.137 18.181l2.551.056v-1.666l-2.496-.056-.055 1.666z" />
                  <path clip-rule="evenodd" d="M20.134 3.74c1.386-1.611 2.94-2.444 5.768-2.444 4.215 0 7.653 1.277 9.927 3.499 1.996 2.11 3.106 4.999 3.05 8.11-.055 2.666-.72 5.22-2.884 7.165-2.052 1.833-4.77 2.888-7.431 2.888h-.167l-7.043-.111.055-1.5 7.044.111a8.614 8.614 0 006.211-2.444 8.73 8.73 0 002.662-6.11c.056-1.888-.499-3.665-1.608-5.22l-.056.055a9.941 9.941 0 01.832 4c-.055 4.942-4.104 8.886-8.984 8.886h-.166l-6.711-.11-2.44-.056-4.326-.056h-.111a5.129 5.129 0 00-5.158 5.055c0 1.166.388 2.388 1.165 3.332l.166.222-.11-.277c-.278-.667-.389-1.389-.389-2.111a5.484 5.484 0 015.49-5.388h.112l2.329.056-.056 1.5-2.329-.056h-.055c-2.163 0-3.938 1.777-3.993 3.944-.056 1.055.277 1.832.942 2.388.61.5 1.442.777 2.607.777.998.056 1.941-.444 2.607-1.277.61-.778.998-1.833.998-2.944l.055-4.277 2.385.056-.055 4.277c-.056 2.055-.721 3.888-1.83 5.22-1.442 1.667-3.55 2.5-6.268 2.5-4.103 0-7.21-1.11-9.372-3.277C1 28.068-.053 25.124.002 21.736a10.248 10.248 0 013.106-7.165 10.066 10.066 0 017.099-2.889h.166l7.043.111-.055 1.5-7.043-.11a8.614 8.614 0 00-6.212 2.443 8.729 8.729 0 00-2.662 6.11c-.055 1.889.5 3.666 1.608 5.221l.056-.055c-.555-1.278-.888-2.611-.832-4a9.122 9.122 0 012.773-6.332c1.72-1.666 3.937-2.555 6.267-2.555h.166l6.71.111 2.441.056 4.326.056h.11a5.128 5.128 0 005.158-5.055c0-1.222-.388-2.388-1.164-3.333l-.167-.222.111.278c.278.666.389 1.388.389 2.11a5.484 5.484 0 01-5.49 5.388h-.112l-2.33-.055.056-1.5 2.33.056c1.053.055 2.052-.39 2.828-1.111a3.789 3.789 0 001.22-2.777c.056-1.056-.277-1.833-.943-2.389-.61-.5-1.442-.777-2.606-.777h-.056c-.998 0-1.885.444-2.55 1.277a4.829 4.829 0 00-1 2.944l-.055 4.277-2.384-.056.055-4.277c.056-1.5.333-3.61 1.775-5.276zm7.208 15.385h.111c4.104 0 7.432-3.278 7.543-7.388a7.245 7.245 0 00-1.442-4.61l-.222-.333.166.388a8.992 8.992 0 01.666 3.389c-.056 2.11-.888 4.054-2.385 5.499-1.497 1.444-3.383 2.221-5.435 2.221h-.166l-4.659-.11.056-1.5 4.658.11h.111c1.608 0 3.217-.61 4.381-1.777 1.22-1.166 1.886-2.721 1.941-4.443a6.544 6.544 0 00-1.33-4l-.222-.277.11.333c.389.833.555 1.777.555 2.722-.055 1.777-.776 3.443-2.052 4.665a6.499 6.499 0 01-4.603 1.889h-.11l-4.327-.056h-.055l-2.385-.055-6.71-.111h-.112c-4.103 0-7.486 3.277-7.542 7.387a7.245 7.245 0 001.442 4.61l.222.334-.167-.39a8.993 8.993 0 01-.665-3.387c.055-4.277 3.55-7.721 7.82-7.721h.166l4.659.111-.056 1.5-4.658-.111h-.111c-3.439 0-6.267 2.777-6.323 6.22 0 1.445.444 2.833 1.331 4l.222.277-.11-.333c-.389-.833-.555-1.777-.555-2.721.055-1.778.776-3.444 2.052-4.666a6.5 6.5 0 014.603-1.889h.11l4.327.056 2.44.055 6.71.111z" /><path d="M56.491 13.47V27.68c-.848-1.54-1.803-3.38-2.722-5.168-.353-.69-.724-1.398-1.078-2.053-1.732-3.327-3.164-5.982-4.26-7.91-.565-1.01-1.66-1.912-2.81-1.594-.547.142-1.484.673-1.484 2.549V31.15s2.51-.141 2.51-2.867V14.55a328.718 328.718 0 013.8 7.097c.353.673.706 1.363 1.06 2.053 1.096 2.124 2.227 4.301 3.181 6 .495.885 1.379 1.664 2.351 1.664.16 0 .3-.018.46-.053.547-.142 1.484-.673 1.484-2.549v-17.68c.018 0-2.492.088-2.492 2.388zM69.198 17.79c-3.677 0-6.664 2.99-6.664 6.672 0 3.68 2.987 6.672 6.664 6.672 3.676 0 6.663-2.991 6.663-6.672 0-3.682-2.987-6.673-6.663-6.673zm0 10.83a4.151 4.151 0 01-4.154-4.159c0-2.3 1.856-4.159 4.154-4.159a4.152 4.152 0 014.153 4.16c-.018 2.283-1.873 4.159-4.153 4.159zM90.036 10.957v9.133a6.618 6.618 0 00-5.037-2.301c-3.677 0-6.664 2.99-6.664 6.672 0 3.682 2.987 6.673 6.664 6.673 2.014 0 3.8-.885 5.037-2.301v.177c0 2.548 2.51 2.513 2.51 2.513V20.674v-2.956-.602-1.787-.124-1.735c0-2.548-2.51-2.513-2.51-2.513zM84.999 28.62a4.152 4.152 0 01-4.154-4.159c0-2.3 1.856-4.159 4.154-4.159a4.152 4.152 0 014.153 4.16c0 2.282-1.873 4.159-4.153 4.159zM96.945 10.957V29.01c0 2.549 2.51 2.513 2.51 2.513v-6.601-7.805-3.646c0-2.549-2.51-2.514-2.51-2.514zM115.451 24.037c0-3.682-2.987-6.673-6.663-6.673s-6.663 2.991-6.663 6.673c0 3.681 2.987 6.672 6.663 6.672 1.838 0 3.5-.743 4.719-1.964l-1.785-1.788a4.151 4.151 0 01-2.934 1.221 4.155 4.155 0 01-3.959-2.902h10.622v-1.24zm-6.663-4.16a4.155 4.155 0 013.959 2.903h-7.918a4.155 4.155 0 013.959-2.902zM17.887 17.646l2.527.071.018-1.628-2.51-.053-.035 1.61z" /><path d="M36.005 4.533C33.707 2.214 30.296.975 26.125.975c-2.775 0-4.878.814-6.24 2.425-1.396 1.646-1.731 3.752-1.749 5.239l-.07 4.247 2.35.054.07-4.248c.018-1.08.372-2.16.99-2.92.654-.815 1.556-1.275 2.546-1.275h.053c1.13.018 1.997.283 2.598.779.636.53.954 1.327.937 2.39a3.894 3.894 0 01-1.202 2.76c-.76.726-1.75 1.133-2.81 1.098l-2.298-.036-.018 1.47 2.298.035h.106c2.934 0 5.355-2.372 5.408-5.328a5.213 5.213 0 00-.371-2.088l-.106-.266.177.213a5.18 5.18 0 011.148 3.327 5.118 5.118 0 01-5.107 5.026h-.089l-4.277-.07-2.44-.053-6.627-.124h-.16a8.83 8.83 0 00-6.185 2.513 8.878 8.878 0 00-2.722 6.265 8.917 8.917 0 00.848 3.947l-.07.036a8.497 8.497 0 01-1.609-5.168c.036-2.301.972-4.443 2.634-6.053a8.62 8.62 0 016.133-2.425l6.964.124.017-1.47-6.963-.123h-.195a10.054 10.054 0 00-6.999 2.832 10.05 10.05 0 00-3.093 7.08c-.053 3.327.99 6.282 2.952 8.282 2.12 2.16 5.231 3.274 9.261 3.274 2.722 0 4.79-.831 6.204-2.477 1.113-1.31 1.75-3.15 1.785-5.168l.07-4.248-2.35-.053-.07 4.248c-.018 1.08-.372 2.159-.99 2.92-.672.832-1.574 1.292-2.599 1.274-1.13-.018-1.997-.283-2.598-.779-.636-.53-.954-1.327-.937-2.389a3.944 3.944 0 013.942-3.876h.07l2.298.035.018-1.469-2.298-.035h-.106c-2.934 0-5.355 2.372-5.408 5.327a5.283 5.283 0 00.389 2.089l.106.265-.177-.212a5.18 5.18 0 01-1.149-3.328 5.119 5.119 0 015.108-5.026h.088l4.277.07 2.44.054 6.628.124h.159c4.842 0 8.837-3.894 8.925-8.779a8.917 8.917 0 00-.848-3.947l.07-.035a8.496 8.496 0 011.609 5.168c-.035 2.3-.972 4.442-2.634 6.053a8.62 8.62 0 01-6.133 2.425l-6.963-.124-.018 1.469 6.964.124h.177c2.633 0 5.302-1.027 7.352-2.832 2.156-1.911 3.376-4.425 3.429-7.08.053-3.097-1.025-5.946-3.04-8zm-1.432 6.707c-.088 4.124-3.41 7.38-7.458 7.38h-.142l-6.628-.123-2.439-.053-4.277-.071h-.124a6.486 6.486 0 00-4.56 1.858 6.54 6.54 0 00-2.015 4.62c-.017.938.16 1.858.53 2.708l.142.318-.212-.265a6.242 6.242 0 01-1.308-3.947c.053-3.434 2.863-6.177 6.274-6.177h.107l4.63.089.018-1.47-4.613-.123h-.142c-4.206 0-7.67 3.398-7.741 7.628a7.699 7.699 0 00.69 3.327l.158.372-.23-.319a7.278 7.278 0 01-1.449-4.548c.071-4.071 3.394-7.328 7.441-7.328h.142l6.663.124 2.35.053v-.017h.036l4.277.07h.124a6.486 6.486 0 004.56-1.858 6.54 6.54 0 002.015-4.62 6.44 6.44 0 00-.53-2.707l-.142-.319.212.266c.884 1.132 1.326 2.495 1.308 3.947a6.216 6.216 0 01-1.926 4.407c-1.184 1.132-2.722 1.77-4.348 1.77h-.106l-4.631-.089-.018 1.469 4.631.089h.141a7.71 7.71 0 005.373-2.178 7.735 7.735 0 002.369-5.45 7.699 7.699 0 00-.69-3.328l-.158-.372.247.319a7.388 7.388 0 011.45 4.548z" />
                </svg>
